<svg xmlns="http://www.w3.org/2000/svg" width="512" height="512" viewBox="0 0 512 512">
  <defs>
    <linearGradient id="bgGrad512" x1="0%" y1="0%" x2="100%" y2="100%">
      <stop offset="0%" style="stop-color:#3b82f6"/>
      <stop offset="100%" style="stop-color:#1d4ed8"/>
    </linearGradient>
  </defs>
  <!-- Background -->
  <rect width="512" height="512" rx="80" fill="url(#bgGrad512)"/>
  <!-- Shield shape -->
  <path d="M256 72 L400 136 L400 264 C400 352 328 416 256 448 C184 416 112 352 112 264 L112 136 Z" fill="white" fill-opacity="0.15"/>
  <!-- Admin A with gear accent -->
  <text x="256" y="320" font-size="200" fill="white" text-anchor="middle" font-family="system-ui, -apple-system, sans-serif" font-weight="700">A</text>
  <!-- Small gear icon -->
  <circle cx="352" cy="160" r="44" fill="white" fill-opacity="0.9"/>
  <circle cx="352" cy="160" r="22" fill="#3b82f6"/>
  <g fill="white" fill-opacity="0.9">
    <rect x="347" y="112" width="10" height="16" rx="2"/>
    <rect x="347" y="192" width="10" height="16" rx="2"/>
    <rect x="304" y="155" width="16" height="10" rx="2"/>
    <rect x="384" y="155" width="16" height="10" rx="2"/>
    <rect x="316" y="124" width="10" height="14" rx="2" transform="rotate(45 321 131)"/>
    <rect x="378" y="186" width="10" height="14" rx="2" transform="rotate(45 383 193)"/>
    <rect x="316" y="186" width="10" height="14" rx="2" transform="rotate(-45 321 193)"/>
    <rect x="378" y="124" width="10" height="14" rx="2" transform="rotate(-45 383 131)"/>
  </g>
</svg>
